<?xml version="1.0" encoding="UTF-8"?>
<svg width="800px" height="400px" viewBox="0 0 800 400" version="1.1" xmlns="http://www.w3.org/2000/svg" xmlns:xlink="http://www.w3.org/1999/xlink">
    <rect width="800" height="400" fill="#1E1E1E"/>
    <g fill="#569CD6" transform="translate(250, 180)">
        <path d="M150,0 C167.673,0 182,14.327 182,32 C182,49.673 167.673,64 150,64 L32,64 C14.327,64 0,49.673 0,32 C0,14.327 14.327,0 32,0 L150,0 Z"/>
        <path d="M132,32 L140,32 L140,132 L40,132 L40,124 L132,124 L132,32 Z" transform="translate(90, 40)"/>
        <path d="M92,72 L100,72 L100,172 L0,172 L0,164 L92,164 L92,72 Z" transform="translate(100, 80)"/>
        <path d="M0,0 L300,0 L300,20 L0,20 Z" transform="translate(0, -60)"/>
        <text font-family="Arial" font-size="24" fill="#FFFFFF" text-anchor="middle" x="150" y="-40">
            Data Pipeline
        </text>
    </g>
</svg>